<?xml version="1.0" encoding="UTF-8" standalone="no"?>
<!-- Created with Inkscape (http://www.inkscape.org/) -->

<svg
   width="512"
   height="512"
   viewBox="0 0 135.46666 135.46667"
   version="1.1"
   id="svg5"
   sodipodi:docname="favicon.svg"
   inkscape:version="1.1 (c68e22c387, 2021-05-23)"
   xmlns:inkscape="http://www.inkscape.org/namespaces/inkscape"
   xmlns:sodipodi="http://sodipodi.sourceforge.net/DTD/sodipodi-0.dtd"
   xmlns="http://www.w3.org/2000/svg"
   xmlns:svg="http://www.w3.org/2000/svg">
  <sodipodi:namedview
     id="namedview7"
     pagecolor="#ffffff"
     bordercolor="#666666"
     borderopacity="1.0"
     inkscape:pageshadow="2"
     inkscape:pageopacity="0.0"
     inkscape:pagecheckerboard="0"
     showgrid="false"
     width="512px"
     inkscape:snap-global="true"
     inkscape:zoom="0.579358"
     inkscape:cx="-21.575606"
     inkscape:cy="253.72913"
     inkscape:window-width="1920"
     inkscape:window-height="1011"
     inkscape:window-x="0"
     inkscape:window-y="32"
     inkscape:window-maximized="1"
     inkscape:current-layer="svg5" />
  <defs
     id="defs2" />
  <g
     id="layer1"
     transform="matrix(14.723142,0,0,14.723142,5.4053645,5.4053703)">
    <g
       aria-label="S"
       id="text1749"
       style="font-size:10.5833px;line-height:1.25;font-family:Inter;-inkscape-font-specification:Inter;fill:#25d0ab;stroke-width:0.264583">
      <path
         d="M 5.9997221,2.2940636 H 6.9017079 C 6.8603669,1.1327569 5.7892588,0.2645956 4.3009823,0.2645956 c -1.4732434,0 -2.6307918,0.8568865 -2.6307918,2.1497327 0,1.0372837 0.7516548,1.6536406 1.9543024,1.9994018 L 4.571578,4.6843258 c 0.8117872,0.2254965 1.5333758,0.5111253 1.5333758,1.2778132 0,0.8418534 -0.8117872,1.3980779 -1.879137,1.3980779 -0.9170189,0 -1.7288061,-0.4058935 -1.8039715,-1.2778131 H 1.4597271 c 0.090199,1.26278 1.1124491,2.1196665 2.7660897,2.1196665 1.7739053,0 2.7811228,-0.9771512 2.7811228,-2.2248982 0,-1.4431772 -1.3680118,-1.9092032 -2.1647659,-2.1196665 L 4.0604527,3.6470422 C 3.4891951,3.4967113 2.5721762,3.1960493 2.5721762,2.369229 c 0,-0.7366217 0.6764893,-1.2778131 1.6987399,-1.2778131 0.9320519,0 1.6386074,0.4434763 1.728806,1.2026477 z"
         id="path4086" />
    </g>
  </g>
</svg>
