<?xml version="1.0" encoding="utf-8"?>
<svg xmlns="http://www.w3.org/2000/svg" xmlns:cc="http://creativecommons.org/ns#" xmlns:dc="http://purl.org/dc/elements/1.1/" xmlns:inkscape="http://www.inkscape.org/namespaces/inkscape" xmlns:rdf="http://www.w3.org/1999/02/22-rdf-syntax-ns#" xmlns:sodipodi="http://sodipodi.sourceforge.net/DTD/sodipodi-0.dtd" xmlns:svg="http://www.w3.org/2000/svg" width="196.19701" height="203.53232" viewBox="0 0 196.19701 203.53232" version="1.1" id="svg11">
  <defs id="defs15"/>
  
  <title id="title2">Icon</title>
  <g id="Icon" stroke="none" stroke-width="1" fill="none" fill-rule="evenodd" transform="translate(-144,-140.5)">
    <g id="Group" transform="translate(144,140.5)" fill="#21837f" fill-rule="nonzero">
      <path d="m 126.9561,179.25792 c -3.27375,0.60625 -12.125,3.51625 -28.49375,2.425 -43.8925,-2.30375 -80.38875,-39.5275 -78.085,-82.81375 3.1525,-56.86625 62.68625,-98.93999997 117.24875,-70.44625 0.7275,0.12125 3.88,1.81875 4.48625,2.06125 6.91125,1.57625 9.9425,-0.84875 12.3675,-4.85 2.6675,-4.48625 1.2125,-11.27625 -5.82,-14.42875 -0.97,-0.485 -2.30375,-1.09125 -3.395,-1.57625 -23.88625,-11.03375 -40.255,-11.03375 -62.08,-7.63875 -25.4625,3.88 -51.77375,19.885 -67.9,45.46875 -23.7650002,37.5875 -19.4000002,88.9975 10.185,122.4625 29.94875,33.7075 72.62875,38.92125 105.85125,29.3425 1.57625,-0.485 3.03125,-1.09125 5.335,-3.6375 1.57625,-2.06125 2.54625,-4.6075 1.94,-7.88125 -0.60625,-4.1225 -5.21375,-9.82125 -11.64,-8.4875 z" id="Path"/>
      <path d="m 172.7886,50.85417 c 5.45625,-0.97 9.09375,-6.18375 8.12375,-11.64 -0.97,-5.45625 -6.18375,-9.09375 -11.64,-8.12375 -5.45625,0.97 -9.09375,6.18375 -8.12375,11.64 0.97,5.45625 6.18375,9.09375 11.64,8.12375 z" id="path5"/>
      <path d="m 181.15485,102.38542 c -16.2475,-13.8225 -42.4375,-11.03375 -59.04875,8.245 -7.5175,8.73 -20.855,14.7925 -31.64625,6.5475 -7.5175,-5.82 -7.76,-16.005 -6.91125,-19.1575 2.425,-9.215 9.4575,-14.42875 17.2175,-15.035 0.2425,0 0.84875,-0.12125 1.09125,-0.12125 6.66875,-0.485 9.9425,-4.48625 10.185,-10.185 0.12125,-6.18375 -4.72875,-10.30625 -10.06375,-10.30625 -1.57625,0 -5.335,0.485 -7.275,0.84875 -15.7625,2.54625 -30.07,17.945 -31.2825,33.34375 -1.33375,15.7625 3.395,26.19 12.73125,34.435 20.97625,18.55125 46.43875,8.12375 58.9275,-4.48625 1.94,-1.94 4.24375,-5.21375 5.94125,-6.5475 9.215,-7.275 20.97625,-7.76 28.49375,-0.485 5.82,5.5775 10.4275,15.035 2.06125,26.19 -6.5475,8.12375 -9.82125,11.64 -13.58,15.64125 -1.33375,1.33375 -4.00125,8.9725 0.84875,13.8225 4.48625,4.365 11.3975,2.91 15.15625,-1.09125 2.91,-3.03125 7.63875,-7.39625 15.15625,-18.915 14.55,-21.825 3.88,-42.68 -8.0025,-52.74375 z" id="path7"/>
    </g>
  </g>
  
</svg>