<?xml version="1.0" encoding="utf-8"?>
<svg xmlns="http://www.w3.org/2000/svg" xmlns:inkscape="http://www.inkscape.org/namespaces/inkscape" xmlns:sodipodi="http://sodipodi.sourceforge.net/DTD/sodipodi-0.dtd" xmlns:svg="http://www.w3.org/2000/svg" width="38.300999" height="38.343136" version="1.1" id="svg13">
  <defs id="defs17"/>
  
  <radialGradient id="a" cy="0.82847677" r="38.364219" gradientTransform="scale(0.9994504,1.0005499)" cx="19.992488" fx="19.992488" fy="0.82847677" gradientUnits="userSpaceOnUse">
    <stop offset="0" stop-color="#20c6b7" id="stop2"/>
    <stop offset="1" stop-color="#4d9abf" id="stop4"/>
  </radialGradient>
  <g fill="none" fill-rule="evenodd" id="g11" transform="translate(-0.129,-0.82893235)">
    <path fill="url(#a)" fill-rule="nonzero" d="m 28.589,14.135 -0.014,-0.006 c -0.008,-0.003 -0.016,-0.006 -0.023,-0.013 a 0.11,0.11 0 0 1 -0.028,-0.093 l 0.773,-4.726 3.625,3.626 -3.77,1.604 a 0.083,0.083 0 0 1 -0.033,0.006 h -0.015 c -0.005,-0.003 -0.01,-0.007 -0.02,-0.017 a 1.716,1.716 0 0 0 -0.495,-0.381 z m 5.258,-0.288 3.876,3.876 c 0.805,0.806 1.208,1.208 1.355,1.674 0.022,0.069 0.04,0.138 0.054,0.209 l -9.263,-3.923 a 0.728,0.728 0 0 0 -0.015,-0.006 c -0.037,-0.015 -0.08,-0.032 -0.08,-0.07 0,-0.038 0.044,-0.056 0.081,-0.071 l 0.012,-0.005 z m 5.127,7.003 c -0.2,0.376 -0.59,0.766 -1.25,1.427 l -4.37,4.369 -5.652,-1.177 -0.03,-0.006 c -0.05,-0.008 -0.103,-0.017 -0.103,-0.062 a 1.706,1.706 0 0 0 -0.655,-1.193 c -0.023,-0.023 -0.017,-0.059 -0.01,-0.092 0,-0.005 0,-0.01 0.002,-0.014 l 1.063,-6.526 0.004,-0.022 c 0.006,-0.05 0.015,-0.108 0.06,-0.108 a 1.73,1.73 0 0 0 1.16,-0.665 c 0.009,-0.01 0.015,-0.021 0.027,-0.027 0.032,-0.015 0.07,0 0.103,0.014 l 9.65,4.082 z m -6.625,6.801 -7.186,7.186 1.23,-7.56 0.002,-0.01 c 0.001,-0.01 0.003,-0.02 0.006,-0.029 0.01,-0.024 0.036,-0.034 0.061,-0.044 l 0.012,-0.005 a 1.85,1.85 0 0 0 0.695,-0.517 c 0.024,-0.028 0.053,-0.055 0.09,-0.06 a 0.09,0.09 0 0 1 0.029,0 l 5.06,1.04 z m -8.707,8.707 -0.81,0.81 -8.955,-12.942 a 0.424,0.424 0 0 0 -0.01,-0.014 c -0.014,-0.019 -0.029,-0.038 -0.026,-0.06 0,-0.016 0.011,-0.03 0.022,-0.042 l 0.01,-0.013 c 0.027,-0.04 0.05,-0.08 0.075,-0.123 l 0.02,-0.035 0.003,-0.003 c 0.014,-0.024 0.027,-0.047 0.051,-0.06 0.021,-0.01 0.05,-0.006 0.073,-0.001 l 9.921,2.046 a 0.164,0.164 0 0 1 0.076,0.033 c 0.013,0.013 0.016,0.027 0.019,0.043 a 1.757,1.757 0 0 0 1.028,1.175 c 0.028,0.014 0.016,0.045 0.003,0.078 a 0.238,0.238 0 0 0 -0.015,0.045 c -0.125,0.76 -1.197,7.298 -1.485,9.063 z m -1.692,1.691 c -0.597,0.591 -0.949,0.904 -1.347,1.03 a 2,2 0 0 1 -1.206,0 c -0.466,-0.148 -0.869,-0.55 -1.674,-1.356 L 8.73,28.73 11.079,25.087 c 0.011,-0.018 0.022,-0.034 0.04,-0.047 0.025,-0.018 0.061,-0.01 0.091,0 a 2.434,2.434 0 0 0 1.638,-0.083 c 0.027,-0.01 0.054,-0.017 0.075,0.002 a 0.19,0.19 0 0 1 0.028,0.032 L 21.95,38.05 Z M 7.863,27.863 5.8,25.8 9.874,24.062 a 0.084,0.084 0 0 1 0.033,-0.007 c 0.034,0 0.054,0.034 0.072,0.065 a 2.91,2.91 0 0 0 0.13,0.184 l 0.013,0.016 c 0.012,0.017 0.004,0.034 -0.008,0.05 l -2.25,3.493 z M 4.887,24.887 2.277,22.277 C 1.833,21.833 1.511,21.511 1.287,21.234 l 7.936,1.646 a 0.84,0.84 0 0 0 0.03,0.005 c 0.049,0.008 0.103,0.017 0.103,0.063 0,0.05 -0.059,0.073 -0.109,0.092 L 9.224,23.05 Z M 0.831,19.892 a 2,2 0 0 1 0.09,-0.495 c 0.148,-0.466 0.55,-0.868 1.356,-1.674 l 3.34,-3.34 a 2175.525,2175.525 0 0 0 4.626,6.687 c 0.027,0.036 0.057,0.076 0.026,0.106 -0.146,0.161 -0.292,0.337 -0.395,0.528 a 0.16,0.16 0 0 1 -0.05,0.062 C 9.811,21.774 9.797,21.771 9.782,21.768 H 9.78 L 0.831,19.891 Z M 6.511,13.489 11,8.998 c 0.423,0.185 1.96,0.834 3.333,1.414 1.04,0.44 1.988,0.84 2.286,0.97 0.03,0.012 0.057,0.024 0.07,0.054 0.008,0.018 0.004,0.041 0,0.06 a 2.003,2.003 0 0 0 0.523,1.828 c 0.03,0.03 0,0.073 -0.026,0.11 l -0.014,0.021 -4.56,7.063 c -0.012,0.02 -0.023,0.037 -0.043,0.05 -0.024,0.015 -0.058,0.008 -0.086,10e-4 A 2.274,2.274 0 0 0 11.94,20.495 c -0.164,0 -0.342,0.03 -0.522,0.063 h -10e-4 c -0.02,0.003 -0.038,0.007 -0.054,-0.005 A 0.21,0.21 0 0 1 11.318,20.502 L 6.51,13.489 Z m 5.398,-5.398 5.814,-5.814 c 0.805,-0.805 1.208,-1.208 1.674,-1.355 a 2,2 0 0 1 1.206,0 c 0.466,0.147 0.869,0.55 1.674,1.355 l 1.26,1.26 -4.135,6.404 a 0.155,0.155 0 0 1 -0.041,0.048 c -0.025,0.017 -0.06,0.01 -0.09,0 a 2.097,2.097 0 0 0 -1.92,0.37 c -0.027,0.028 -0.067,0.012 -0.101,-0.003 -0.54,-0.235 -4.74,-2.01 -5.341,-2.265 z m 12.506,-3.676 3.818,3.818 -0.92,5.698 v 0.015 a 0.135,0.135 0 0 1 -0.008,0.038 c -0.01,0.02 -0.03,0.024 -0.05,0.03 a 1.83,1.83 0 0 0 -0.548,0.273 0.154,0.154 0 0 0 -0.02,0.017 c -0.011,0.012 -0.022,0.023 -0.04,0.025 A 0.114,0.114 0 0 1 26.604,14.322 L 20.786,11.85 20.775,11.845 C 20.738,11.83 20.694,11.812 20.694,11.774 a 2.198,2.198 0 0 0 -0.31,-0.915 c -0.028,-0.046 -0.059,-0.094 -0.035,-0.141 z m -3.932,8.606 5.454,2.31 c 0.03,0.014 0.063,0.027 0.076,0.058 a 0.106,0.106 0 0 1 0,0.057 c -0.016,0.08 -0.03,0.171 -0.03,0.263 v 0.153 c 0,0.038 -0.039,0.054 -0.075,0.069 l -0.011,0.004 c -0.864,0.369 -12.13,5.173 -12.147,5.173 -0.017,0 -0.035,0 -0.052,-0.017 -0.03,-0.03 0,-0.072 0.027,-0.11 a 0.76,0.76 0 0 0 0.014,-0.02 l 4.482,-6.94 0.008,-0.012 c 0.026,-0.042 0.056,-0.089 0.104,-0.089 l 0.045,0.007 c 0.102,0.014 0.192,0.027 0.283,0.027 0.68,0 1.31,-0.331 1.69,-0.897 a 0.16,0.16 0 0 1 0.034,-0.04 c 0.027,-0.02 0.067,-0.01 0.098,0.004 z m -6.246,9.185 12.28,-5.237 c 0,0 0.018,0 0.035,0.017 0.067,0.067 0.124,0.112 0.179,0.154 l 0.027,0.017 c 0.025,0.014 0.05,0.03 0.052,0.056 0,0.01 0,0.016 -0.002,0.025 l -1.052,6.462 -0.004,0.026 c -0.007,0.05 -0.014,0.107 -0.061,0.107 a 1.729,1.729 0 0 0 -1.373,0.847 l -0.005,0.008 c -0.014,0.023 -0.027,0.045 -0.05,0.057 -0.021,0.01 -0.048,0.006 -0.07,10e-4 L 14.4,22.726 c -0.01,-0.002 -0.152,-0.519 -0.163,-0.52 z" transform="translate(-0.702)" id="path9" style="fill:url(#a)"/>
  </g>
</svg>